<svg height='300px' width='300px'  fill="#000000" xmlns="http://www.w3.org/2000/svg" data-name="Layer 1" viewBox="0 0 100 100" x="0px" y="0px"><title>All3</title><path d="M63,47.68a4.68,4.68,0,0,0,1.3-3.45,4.85,4.85,0,0,0-1.35-3.68c-1.11-1.18-2.24-2.34-3.45-3.42a5.12,5.12,0,0,0-6.91,0c-3.58,3.33-6.87,7-10.48,10.28-1.79,1.63-3.33,3.53-5.09,5.2-0.66.63-1.24,1.52-2.46,1.39a6.76,6.76,0,0,0-5.62,2.23Q16.26,68.85,3.64,81.54a7.59,7.59,0,0,0-.12,10.94q2.07,2.2,4.27,4.28a7.62,7.62,0,0,0,10.69-.05Q31.24,84,44,71.23a6.23,6.23,0,0,0,2-4.66,3.93,3.93,0,0,1,1.65-3.53,7.72,7.72,0,0,0,.59-0.58c3.25-3.21,6.52-6.41,9.76-9.64C59.67,51.14,61.35,49.43,63,47.68Z"></path><path d="M30.82,45a1.05,1.05,0,0,1,1.38.36c0.92,1.14,1.9,2.22,2.88,3.31a1.11,1.11,0,0,0,1.9.08c0.79-.86,1.68-1.63,2.5-2.48q4.7-4.85,9.53-9.57c0.64-.62.54-0.94-0.07-1.44-1.19-1-2.31-2-3.49-3A1.13,1.13,0,0,1,45,30.79a20.75,20.75,0,0,0,1.27-7.53A23.69,23.69,0,0,0,46,18.9,23.25,23.25,0,0,0,16.37,1c-1.72.53-1.84,0.92-.59,2.17Q21.89,9.32,28,15.43c1.77,1.76,1.78,2.76,0,4.56l-8.13,8.13c-1.67,1.67-2.68,1.65-4.38-.05L3.1,15.66c-1.09-1.09-1.5-1-2,.52a22.06,22.06,0,0,0-.5,12.14A23.08,23.08,0,0,0,30.82,45Z"></path><path d="M95.56,76.41C89.16,71,83,65.28,76.62,59.74c-3.65-3.19-7.16-6.54-10.94-9.57L65.57,50a0.74,0.74,0,0,0-.65-0.51l-0.29-.29L49,64.85l1,1c8.71,9.9,17.52,19.72,26.24,29.62a13.39,13.39,0,0,0,17.85,2C101,92.67,102.29,82.13,95.56,76.41ZM86.32,94.25a8,8,0,0,1-8-7.92,8,8,0,0,1,8-8,7.93,7.93,0,0,1,7.92,8A7.85,7.85,0,0,1,86.32,94.25Z"></path><path d="M98.24,7.26Q95.65,4.69,93.08,2.1A0.63,0.63,0,0,0,92.17,2c-2.79,1.57-5.6,3.12-8.39,4.68a1.58,1.58,0,0,0-.53.5c-1.92,3-3.88,5.9-5.73,8.9A33.83,33.83,0,0,1,72,22.88c-2.95,2.82-5.77,5.76-8.66,8.65l-2.58,2.56,5.47,5.49,0.18-.19c3.73-3.74,7.45-7.49,11.21-11.21a28.23,28.23,0,0,1,3.77-3.42c3.56-2.43,7.23-4.67,10.84-7a4.51,4.51,0,0,0,1.49-1.31c1.59-2.72,3.08-5.51,4.62-8.25A0.65,0.65,0,0,0,98.24,7.26Z"></path></svg>