<?xml version="1.0" encoding="UTF-8" standalone="no"?>
<!-- Generator: Adobe Illustrator 16.0.0, SVG Export Plug-In . SVG Version: 6.00 Build 0)  -->

<svg
   xmlns:dc="http://purl.org/dc/elements/1.1/"
   xmlns:cc="http://creativecommons.org/ns#"
   xmlns:rdf="http://www.w3.org/1999/02/22-rdf-syntax-ns#"
   xmlns:svg="http://www.w3.org/2000/svg"
   xmlns="http://www.w3.org/2000/svg"
   xmlns:sodipodi="http://sodipodi.sourceforge.net/DTD/sodipodi-0.dtd"
   xmlns:inkscape="http://www.inkscape.org/namespaces/inkscape"
   version="1.1"
   id="Layer_1"
   x="0px"
   y="0px"
   width="136.914px"
   height="136.913px"
   viewBox="0 0 136.914 136.913"
   enable-background="new 0 0 136.914 136.913"
   xml:space="preserve"
   sodipodi:docname="06-transporte.svg"
   inkscape:version="0.92.4 5da689c313, 2019-01-14"><metadata
   id="metadata55"><rdf:RDF><cc:Work
       rdf:about=""><dc:format>image/svg+xml</dc:format><dc:type
         rdf:resource="http://purl.org/dc/dcmitype/StillImage" /></cc:Work></rdf:RDF></metadata><defs
   id="defs53" /><sodipodi:namedview
   pagecolor="#ffffff"
   bordercolor="#666666"
   borderopacity="1"
   objecttolerance="10"
   gridtolerance="10"
   guidetolerance="10"
   inkscape:pageopacity="0"
   inkscape:pageshadow="2"
   inkscape:window-width="1920"
   inkscape:window-height="1021"
   id="namedview51"
   showgrid="false"
   inkscape:zoom="1.2188558"
   inkscape:cx="-118.8171"
   inkscape:cy="36.225595"
   inkscape:window-x="0"
   inkscape:window-y="1080"
   inkscape:window-maximized="1"
   inkscape:current-layer="Layer_1" />
<g
   id="g48">
	<g
   id="g46">
		<circle
   cx="68.457001"
   cy="68.455002"
   r="63.333"
   id="circle2"
   style="fill:#e9e9e9;fill-opacity:1" />
		<g
   id="g44">
			<path
   d="m 106.958,80.779 c 0,3.314 -6.936,6 -10.25,6 l -21,-0.092 v -31.75 c 0,-3.314 3.188,-6 6.5,-6 h 14.5 c 3.314,0 6,2.686 6,6 z"
   id="path4"
   inkscape:connector-curvature="0"
   style="fill:#ffc51f;fill-opacity:1" />
			<path
   d="M 100.208,65.842 80.165,65.772 V 55.688 c 0,-2.572 0.973,-3.262 3.543,-3.262 h 11.75 c 2.572,0 3.25,1.012 3.453,3.262 z"
   id="path6"
   inkscape:connector-curvature="0"
   style="fill:#f9f9f9" />
			<path
   d="M 76.458,86.779 H 33.014 c -4.173,0 -7.556,-3.383 -7.556,-7.555 V 48.492 c 0,-4.172 3.383,-5.555 7.556,-5.555 h 35.889 c 4.172,0 7.555,1.383 7.555,5.555 z"
   id="path8"
   inkscape:connector-curvature="0"
   style="fill:#e66b00;fill-opacity:1" />
			<path
   d="M 76.458,86.779 H 33.014 c -4.173,0 -7.556,-3.383 -7.556,-7.555 v -28.87 c 0,-4.172 51,-4.172 51,0 z"
   id="path10"
   inkscape:connector-curvature="0"
   style="fill:#ff7802;fill-opacity:1" />
			<path
   d="m 111.458,82.336 c 0,2.453 -1.99,4.443 -4.443,4.443 H 85.903 c -2.455,0 -4.445,-1.99 -4.445,-4.443 V 70.438 c 0,-2.453 1.99,-4.443 4.445,-4.443 h 21.111 c 2.453,0 4.443,1.99 4.443,4.443 v 11.898 z"
   id="path12"
   inkscape:connector-curvature="0"
   style="fill:#fbc71f;fill-opacity:1" />
			<path
   d="m 115.458,85.936 c 0,1.295 -1.049,2.344 -2.344,2.344 H 25.803 c -1.295,0 -2.345,-1.049 -2.345,-2.344 v -2.959 c 0,-1.295 1.05,-2.346 2.345,-2.346 h 87.311 c 1.295,0 2.344,1.051 2.344,2.346 z"
   id="path14"
   inkscape:connector-curvature="0"
   style="fill:#cecbcb" />
			<path
   d="m 104.469,85.936 c 0,1.295 -1.051,2.344 -2.346,2.344 h -76.32 c -1.295,0 -2.345,-1.049 -2.345,-2.344 v -3.439 c 0,-1.295 1.05,-2.344 2.345,-2.344 h 76.321 c 1.295,0 2.346,1.049 2.346,2.344 v 3.439 z"
   id="path16"
   inkscape:connector-curvature="0"
   style="fill:#888992;fill-opacity:1" />
			<g
   id="g26">
				<g
   id="g20">
					<circle
   cx="93.859001"
   cy="91.236"
   r="9.8450003"
   id="circle18"
   style="fill:#454951;fill-opacity:1" />
				</g>
				<circle
   cx="93.859001"
   cy="91.236"
   r="5.8559999"
   id="circle22"
   style="fill:#aaa9b0;fill-opacity:1" />
				<circle
   cx="93.860001"
   cy="91.234001"
   r="2.1889999"
   id="circle24"
   style="fill:#c6c3cd;fill-opacity:1" />
			</g>
			<g
   id="g36">
				<g
   id="g30">
					<circle
   cx="46.859001"
   cy="91.236"
   r="9.8450003"
   id="circle28"
   style="fill:#454951;fill-opacity:1" />
				</g>
				<path
   d="m 52.715,91.236 c 0,3.232 -2.621,5.854 -5.855,5.854 -3.234,0 -5.857,-2.621 -5.857,-5.854 0,-3.236 2.623,-5.857 5.857,-5.857 3.234,0 5.855,2.621 5.855,5.857 z"
   id="path32"
   inkscape:connector-curvature="0"
   style="fill:#aaa9b0;fill-opacity:1" />
				<circle
   cx="46.860001"
   cy="91.234001"
   r="2.1889999"
   id="circle34"
   style="fill:#c6c3cd;fill-opacity:1" />
			</g>
			<g
   id="g42">
				<path
   d="m 93.708,84.191 c 3.385,0 7.441,1.988 9.211,4.912 l 5.514,-0.002 c -1.838,-6.73 -7.729,-11.662 -14.725,-11.662 -6.996,0 -12.887,4.932 -14.725,11.662 l 5.512,0.002 c 1.771,-2.923 5.826,-4.912 9.213,-4.912 z"
   id="path38"
   inkscape:connector-curvature="0"
   style="fill:#70717b;fill-opacity:1" />
				<path
   d="m 47.042,84.191 c 3.385,0 7.141,1.988 8.84,4.91 h 5.885 c -1.838,-6.73 -7.729,-11.662 -14.725,-11.662 -6.996,0 -12.887,4.932 -14.725,11.662 l 5.885,0.002 c 1.697,-2.923 5.453,-4.912 8.84,-4.912 z"
   id="path40"
   inkscape:connector-curvature="0"
   style="fill:#70717b;fill-opacity:1" />
			</g>
		</g>
	</g>
</g>
<rect
   style="opacity:1;fill:#f7b70c;fill-opacity:1"
   id="rect873"
   width="22.562143"
   height="19.280376"
   x="39.893974"
   y="53.945839" /><rect
   style="opacity:1;fill:#f6a000;fill-opacity:1;stroke-width:0.71350604"
   id="rect873-3"
   width="11.486182"
   height="19.280376"
   x="50.969936"
   y="53.945839" /><rect
   style="opacity:1;fill:#b35b00;fill-opacity:1;stroke-width:1.6814816"
   id="rect890"
   width="5.8456478"
   height="15.383281"
   x="48.098389"
   y="53.330509" /></svg>