<?xml version="1.0" encoding="UTF-8" standalone="no"?>
<!-- Generator: Adobe Illustrator 16.0.0, SVG Export Plug-In . SVG Version: 6.00 Build 0)  -->

<svg
   xmlns:dc="http://purl.org/dc/elements/1.1/"
   xmlns:cc="http://creativecommons.org/ns#"
   xmlns:rdf="http://www.w3.org/1999/02/22-rdf-syntax-ns#"
   xmlns:svg="http://www.w3.org/2000/svg"
   xmlns="http://www.w3.org/2000/svg"
   xmlns:sodipodi="http://sodipodi.sourceforge.net/DTD/sodipodi-0.dtd"
   xmlns:inkscape="http://www.inkscape.org/namespaces/inkscape"
   version="1.1"
   id="Layer_1"
   x="0px"
   y="0px"
   width="136.914px"
   height="136.914px"
   viewBox="0 0 136.914 136.914"
   enable-background="new 0 0 136.914 136.914"
   xml:space="preserve"
   sodipodi:docname="07-entregue.svg"
   inkscape:version="0.92.4 5da689c313, 2019-01-14"><metadata
   id="metadata97"><rdf:RDF><cc:Work
       rdf:about=""><dc:format>image/svg+xml</dc:format><dc:type
         rdf:resource="http://purl.org/dc/dcmitype/StillImage" /></cc:Work></rdf:RDF></metadata><defs
   id="defs95">
	

		
		
	</defs><sodipodi:namedview
   pagecolor="#ffffff"
   bordercolor="#666666"
   borderopacity="1"
   objecttolerance="10"
   gridtolerance="10"
   guidetolerance="10"
   inkscape:pageopacity="0"
   inkscape:pageshadow="2"
   inkscape:window-width="1920"
   inkscape:window-height="1021"
   id="namedview93"
   showgrid="false"
   inkscape:zoom="0.15235586"
   inkscape:cx="-2027.3137"
   inkscape:cy="83.837961"
   inkscape:window-x="0"
   inkscape:window-y="1080"
   inkscape:window-maximized="1"
   inkscape:current-layer="Layer_1" />
<circle
   cx="68.457001"
   cy="68.456001"
   r="63.333"
   id="circle2"
   style="fill:#b5d131;fill-opacity:1" /><path
   style="opacity:1;fill:#ffffff;fill-opacity:1;stroke-width:1.03442371"
   d="M 68.456999,22.107404 46.012176,34.054858 V 29.88227 H 35.651237 v 9.687553 L 17.32196,49.327209 H 28.399052 V 106.8046 H 108.51495 V 49.327209 h 11.07709 L 94.024521,35.717302 Z"
   id="rect826"
   inkscape:connector-curvature="0" /><g
   id="g86"
   transform="matrix(0.74018068,0,0,0.74018068,17.630433,26.36843)">
			
			<path
   d="M 103.075,53.946 H 34.26 c -1.182,0 -2.141,0.959 -2.141,2.143 v 38.557 c 0,1.182 0.959,2.141 2.141,2.141 h 34.338 0.141 34.336 c 1.184,0 2.141,-0.959 2.141,-2.141 V 56.089 c -10e-4,-1.182 -0.958,-2.143 -2.141,-2.143 z"
   id="path60"
   inkscape:connector-curvature="0"
   style="fill:#eec65d;fill-opacity:1" />
			<path
   d="M 103.075,53.946 H 68.743 l 0.006,42.84 h 34.326 c 1.184,0 2.141,-0.959 2.141,-2.141 V 56.089 c -10e-4,-1.182 -0.958,-2.143 -2.141,-2.143 z"
   id="path62"
   inkscape:connector-curvature="0"
   style="fill:#e6be54;fill-opacity:1" />
			<path
   d="M 105.42,51.468 68.742,44.474 v -0.029 l -0.074,0.014 -0.076,-0.014 v 0.029 l -36.678,6.994 c -1.262,0 -2.287,1.023 -2.287,2.287 v 6.752 c 0,1.262 1.025,2.287 2.287,2.287 l 36.754,-7.01 36.752,7.01 c 1.264,0 2.287,-1.023 2.287,-2.287 v -6.752 c 0.001,-1.264 -1.023,-2.287 -2.287,-2.287 z"
   id="path64"
   inkscape:connector-curvature="0"
   style="fill:#d2a543;fill-opacity:1" />
			<path
   d="m 107.708,59.261 c 0,1.264 0.076,2.363 -0.83,2.287 L 68.593,54.525 V 43.198 l 36.828,7.023 c 1.264,0 2.287,1.023 2.287,2.287 z"
   id="path66"
   inkscape:connector-curvature="0"
   style="fill:#e6be54;fill-opacity:1" />
			<path
   d="m 29.627,52.509 c 0,-1.264 1.025,-2.287 2.287,-2.287 l 36.828,-7.023 v 11.326 l -38.436,7.326 c -0.68,0 -0.68,-1.328 -0.68,-2.59 v -6.752 z"
   id="path68"
   inkscape:connector-curvature="0"
   style="fill:#eec65d;fill-opacity:1" />
			<g
   id="g76"
   style="fill:#ffecc4;fill-opacity:1">
				<path
   style="fill:#ffecc4;fill-opacity:1"
   d="M 93.512,71.114 82.637,70.08844 V 58.433 l 0.68,-1.037 10.951,2.039 -0.756,1.037 z"
   id="polygon70"
   inkscape:connector-curvature="0"
   sodipodi:nodetypes="ccccccc" />
				<polygon
   points="94.268,59.435 93.512,60.47 82.637,58.433 83.317,57.396 "
   id="polygon72"
   style="fill:#ffecc4;fill-opacity:1" />
				<polygon
   points="83.317,57.396 94.268,59.435 94.268,48.069 83.317,45.954 "
   id="polygon74"
   style="fill:#ffecc4;fill-opacity:1" />
			</g>
			<g
   id="g84"
   style="fill:#ffecc4;fill-opacity:1">
				
				
				
			</g>
		<path
   style="opacity:1;fill:#ffffff;fill-opacity:1"
   d="M 33.358284,87.311684 49.312246,86.38868 v 8.464877 H 33.358284 Z"
   id="rect1006"
   inkscape:connector-curvature="0"
   sodipodi:nodetypes="ccccc" /><g
   id="g1035"
   transform="matrix(0.66557312,0,0,0.66557312,-1.2467278,32.076558)"><path
     style="opacity:1;fill:#d2a543;fill-opacity:1;stroke-width:0.30200127"
     d="m 59.240234,86.101562 -1.361328,2.357422 -1.361328,2.359375 H 58.0625 v 4.808594 h 2.230469 v -4.808594 h 1.671875 l -1.361328,-2.359375 z m 2.72461,4.716797 h 1.546875 v 4.808594 h 2.230469 v -4.808594 h 1.669921 L 66.050781,88.458984 64.6875,86.101562 63.326172,88.458984 Z"
     transform="matrix(1.5024645,0,0,1.5024645,1.8731643,-48.19389)"
     id="path1013"
     inkscape:connector-curvature="0" /></g></g>
</svg>