<?xml version="1.0" encoding="UTF-8" standalone="no"?>
<!-- Generator: Adobe Illustrator 16.0.0, SVG Export Plug-In . SVG Version: 6.00 Build 0)  -->

<svg
   xmlns:dc="http://purl.org/dc/elements/1.1/"
   xmlns:cc="http://creativecommons.org/ns#"
   xmlns:rdf="http://www.w3.org/1999/02/22-rdf-syntax-ns#"
   xmlns:svg="http://www.w3.org/2000/svg"
   xmlns="http://www.w3.org/2000/svg"
   xmlns:sodipodi="http://sodipodi.sourceforge.net/DTD/sodipodi-0.dtd"
   xmlns:inkscape="http://www.inkscape.org/namespaces/inkscape"
   version="1.1"
   id="Layer_1"
   x="0px"
   y="0px"
   width="136.914px"
   height="136.914px"
   viewBox="0 0 136.914 136.914"
   enable-background="new 0 0 136.914 136.914"
   xml:space="preserve"
   sodipodi:docname="avariado.svg"
   inkscape:version="0.92.4 5da689c313, 2019-01-14"><metadata
   id="metadata97"><rdf:RDF><cc:Work
       rdf:about=""><dc:format>image/svg+xml</dc:format><dc:type
         rdf:resource="http://purl.org/dc/dcmitype/StillImage" /></cc:Work></rdf:RDF></metadata><defs
   id="defs95">
	

		
		
	</defs><sodipodi:namedview
   pagecolor="#ffffff"
   bordercolor="#666666"
   borderopacity="1"
   objecttolerance="10"
   gridtolerance="10"
   guidetolerance="10"
   inkscape:pageopacity="0"
   inkscape:pageshadow="2"
   inkscape:window-width="1920"
   inkscape:window-height="1051"
   id="namedview93"
   showgrid="false"
   inkscape:zoom="0.86185488"
   inkscape:cx="416.60088"
   inkscape:cy="-85.06084"
   inkscape:window-x="0"
   inkscape:window-y="0"
   inkscape:window-maximized="1"
   inkscape:current-layer="Layer_1" />
<circle
   cx="68.457001"
   cy="68.456001"
   r="63.333"
   id="circle2"
   style="fill:#e84849;fill-opacity:1" /><g
   id="g86">
			
			<path
   d="M 103.075,53.946 H 34.26 c -1.182,0 -2.141,0.959 -2.141,2.143 l 3.190792,15.558793 -3.243686,7.003798 0.460866,4.597996 1.024667,7.549882 L 32.119,94.646 c -0.41255,1.107667 0.959,2.141 2.141,2.141 h 34.338 0.141 34.336 c 1.184,0 2.141,-0.959 2.141,-2.141 V 56.089 c -10e-4,-1.182 -0.958,-2.143 -2.141,-2.143 z"
   id="path60"
   inkscape:connector-curvature="0"
   style="fill:#eec65d;fill-opacity:1"
   sodipodi:nodetypes="sssccccssccsscs" />
			<path
   d="M 103.075,53.946 H 68.743 l 1.163088,15.381217 -2.754709,7.106764 1.887147,6.938851 L 68.749,96.786 h 34.326 c 1.184,0 2.141,-0.959 2.141,-2.141 l 0.92259,-8.616425 1.97813,-6.693873 -2.7171,-8.406903 L 105.216,56.089 c -10e-4,-1.182 -0.958,-2.143 -2.141,-2.143 z"
   id="path62"
   inkscape:connector-curvature="0"
   style="fill:#e6be54;fill-opacity:1"
   sodipodi:nodetypes="scccccssccccs" />
			<path
   d="M 105.42,51.468 68.742,44.474 v -0.029 l -0.074,0.014 -0.076,-0.014 v 0.029 l -36.678,6.994 c -1.262,0 -2.287,1.023 -2.287,2.287 v 6.752 c 0,1.262 1.025,2.287 2.287,2.287 L 62.766404,58.415282 68.668,55.784 l 36.752,7.01 c 1.264,0 2.287,-1.023 2.287,-2.287 v -6.752 c 0.001,-1.264 -1.023,-2.287 -2.287,-2.287 z"
   id="path64"
   inkscape:connector-curvature="0"
   style="fill:#d2a543;fill-opacity:1"
   sodipodi:nodetypes="cccccccssccccscc" />
			<path
   d="m 107.708,59.261 c 0,1.264 0.076,2.363 -0.83,2.287 L 68.593,54.525 V 43.198 l 6.988584,0.381393 23.648519,6.759598 L 105.421,50.221 c 1.264,0 2.287,1.023 2.287,2.287 z"
   id="path66"
   inkscape:connector-curvature="0"
   style="fill:#e6be54;fill-opacity:1"
   sodipodi:nodetypes="sccccccss" />
			<path
   d="m 29.627,52.509 c 0,-1.264 1.025,-2.287 2.287,-2.287 l 5.79491,-2.652573 5.816584,2.690061 3.144866,-2.851486 6.976624,0.07811 L 68.742,43.199 V 54.525 L 58.880651,57.413421 30.306,61.851 c -0.68,0 -0.68,-1.328 -0.68,-2.59 v -6.752 z"
   id="path68"
   inkscape:connector-curvature="0"
   style="fill:#eec65d;fill-opacity:1"
   sodipodi:nodetypes="ccccccccccscc" />
			<g
   id="g76"
   style="fill:#ffecc4;fill-opacity:1">
				<path
   style="fill:#d2a543;fill-opacity:1"
   d="M 97.863081,67.343064 93.252545,65.889943 87.568225,67.912899 82.637,58.433 l 0.68,-1.037 10.951,2.039 -0.756,1.037 z"
   id="polygon70"
   inkscape:connector-curvature="0"
   sodipodi:nodetypes="cccccccc" />
				<polygon
   points="83.317,57.396 94.268,59.435 93.512,60.47 82.637,58.433 "
   id="polygon72"
   style="fill:#ffecc4;fill-opacity:1" />
				<path
   style="fill:#ffecc4;fill-opacity:1"
   d="M 83.317,45.954 V 57.396 L 94.268,59.435 89.336775,47.198784 Z"
   id="polygon74"
   inkscape:connector-curvature="0"
   sodipodi:nodetypes="ccccc" />
			</g>
			<g
   id="g84"
   style="fill:#ffecc4;fill-opacity:1">
				
				
				
			</g>
		<path
   style="opacity:1;fill:#ffffff;fill-opacity:1"
   d="M 34.518572,87.021612 49.312246,86.38868 v 8.464877 l -15.228782,-0.870216 1.196406,-3.0435 z"
   id="rect1006"
   inkscape:connector-curvature="0"
   sodipodi:nodetypes="cccccc" /><g
   id="g1035"
   transform="matrix(0.66557312,0,0,0.66557312,-1.2467278,32.076558)"><path
     style="opacity:1;fill:#d2a543;fill-opacity:1;stroke-width:0.30200127"
     d="m 59.240234,86.101562 -1.361328,2.357422 -1.361328,2.359375 H 58.0625 v 4.808594 h 2.230469 v -4.808594 h 1.671875 l -1.361328,-2.359375 z m 2.72461,4.716797 h 1.546875 v 4.808594 h 2.230469 v -4.808594 h 1.669921 L 66.050781,88.458984 64.6875,86.101562 63.326172,88.458984 Z"
     transform="matrix(1.5024645,0,0,1.5024645,1.8731643,-48.19389)"
     id="path1013"
     inkscape:connector-curvature="0" /></g></g>
<path
   style="fill:#ffecc4;fill-opacity:1"
   d="M 97.863081,65.457596 92.385326,64.221325 88.873549,65.592323 82.637,58.433 l 0.68,-1.037 10.951,2.039 -0.756,1.037 z"
   id="polygon70-6"
   inkscape:connector-curvature="0"
   sodipodi:nodetypes="cccccccc" /></svg>