<svg id="Layer_1" data-name="Layer 1" xmlns="http://www.w3.org/2000/svg" xmlns:xlink="http://www.w3.org/1999/xlink" viewBox="0 0 521.14 389.6"><defs><linearGradient id="linear-gradient" x1="78.66" y1="380.84" x2="76.35" y2="283.98" gradientUnits="userSpaceOnUse"><stop offset="0" stop-color="#010101" stop-opacity="0"/><stop offset="0.95" stop-color="#010101"/></linearGradient><linearGradient id="linear-gradient-2" x1="85.78" y1="402.04" x2="81.17" y2="414.87" xlink:href="#linear-gradient"/><linearGradient id="linear-gradient-3" x1="89.92" y1="350.65" x2="68.73" y2="354.76" xlink:href="#linear-gradient"/><linearGradient id="linear-gradient-4" x1="265.56" y1="85.33" x2="260.37" y2="509.1" xlink:href="#linear-gradient"/><linearGradient id="linear-gradient-5" x1="123.21" y1="237.37" x2="43.97" y2="257.33" xlink:href="#linear-gradient"/><linearGradient id="linear-gradient-6" x1="413.49" y1="168.69" x2="183.45" y2="164.37" xlink:href="#linear-gradient"/><linearGradient id="linear-gradient-7" x1="503.91" y1="165.47" x2="273.87" y2="166.33" xlink:href="#linear-gradient"/><linearGradient id="linear-gradient-8" x1="101.11" y1="260.19" x2="50.08" y2="263.87" xlink:href="#linear-gradient"/><linearGradient id="linear-gradient-9" x1="51.05" y1="352.14" x2="74.86" y2="352.14" xlink:href="#linear-gradient"/><linearGradient id="linear-gradient-10" x1="67.8" y1="290.48" x2="10.81" y2="292.98" xlink:href="#linear-gradient"/><linearGradient id="linear-gradient-11" x1="84.14" y1="222.25" x2="57.91" y2="222.25" xlink:href="#linear-gradient"/><linearGradient id="linear-gradient-12" x1="64.17" y1="403.74" x2="61.14" y2="410.01" xlink:href="#linear-gradient"/></defs><title>Order Confirm</title><path d="M524.1,332.28A81.29,81.29,0,0,1,514,354.46c-8.48,13.08-20.55,23.65-34.53,31.33C460,396.45,450.81,417.09,429,424.46c-14.84,5-30.84,5.16-46.48,4.55a507.26,507.26,0,0,1-71.93-8c-30.41-5.59-61.71-14-91.78-6.76-20.68,4.95-39,17-59.47,22.7-17.35,4.85-35.66,5.07-53.66,4.21-32.62-1.54-69.82-9.62-85.3-38.37a58.59,58.59,0,0,1-6-17.41v0c-3-16.25-.12-33.88,3.69-50.28,5.19-22.52,12-45.83,6.72-68.35C21,250.24,11,235.65,7.86,219A60.23,60.23,0,0,1,12,183.74c8-17.91,24.23-30.81,41.43-40.18s35.88-15.88,53-25.37c34.4-19,62.66-49.73,100.25-61.15,30.26-9.19,63-4.67,93.6,3.19s60.57,18.92,91.93,22.91c32.34,4.09,67.82,1.23,94.54,19.94,22.18,15.54,33.08,43,36.62,69.85s.89,54.06,2.05,81.09C526.59,280.22,531.26,307.06,524.1,332.28Z" transform="translate(-6.86 -51.93)" fill="#d9dbe3" opacity="0.24" style="isolation:isolate"/><path d="M514,354.46c-8.48,13.08-20.55,23.65-34.53,31.33C460,396.45,450.81,417.09,429,424.46c-14.84,5-30.84,5.16-46.48,4.55a507.26,507.26,0,0,1-71.93-8c-30.41-5.59-61.71-14-91.78-6.76-20.68,4.95-39,17-59.47,22.7-17.35,4.85-35.66,5.07-53.66,4.21-32.62-1.54-69.82-9.62-85.3-38.37a58.59,58.59,0,0,1-6-17.41v0c29.58-11.09,75.26-1.91,105.7-.06C251.71,393.31,383,350,514,354.46Z" transform="translate(-6.86 -51.93)" fill="#d9dbe3" opacity="0.51"/><ellipse cx="78.15" cy="359.49" rx="52.18" ry="7.78" opacity="0.37" fill="url(#linear-gradient)"/><path d="M72.07,400.59l-.1,5.55a12.26,12.26,0,0,0,6.22.14c3-.87,5-4.66,5-4.66l-.3-2.17Z" transform="translate(-6.86 -51.93)" fill="#f5c7c8"/><path d="M71.54,407.16a5.15,5.15,0,0,0,.45,2.49,4.79,4.79,0,0,0,2.78,2,21.82,21.82,0,0,0,6.39.88c3.37.12,6.74.14,10.1.09,1.51,0,3.26-.21,4.08-1.47a3.21,3.21,0,0,0-.49-3.63,9.28,9.28,0,0,0-3.22-2.18l-6.28-3.08a4.18,4.18,0,0,0-1.55-.52c-1.24-.07-2.23.93-3.24,1.65a8.37,8.37,0,0,1-5.7,1.47C72.17,404.6,71.58,403.85,71.54,407.16Z" transform="translate(-6.86 -51.93)" fill="#606161"/><path d="M71.54,407.16a5.15,5.15,0,0,0,.45,2.49,4.79,4.79,0,0,0,2.78,2,21.82,21.82,0,0,0,6.39.88c3.37.12,6.74.14,10.1.09,1.51,0,3.26-.21,4.08-1.47a3.21,3.21,0,0,0-.49-3.63,9.28,9.28,0,0,0-3.22-2.18l-6.28-3.08a4.18,4.18,0,0,0-1.55-.52c-1.24-.07-2.23.93-3.24,1.65a8.37,8.37,0,0,1-5.7,1.47C72.17,404.6,71.58,403.85,71.54,407.16Z" transform="translate(-6.86 -51.93)" opacity="0.37" fill="url(#linear-gradient-2)"/><path d="M80.39,308.58l3,34.15L84,400s-8.83,2.79-11.77.94L67.91,351.8,54.28,311S72,301.94,80.39,308.58Z" transform="translate(-6.86 -51.93)" fill="#606161"/><path d="M80.39,308.58l3,34.15L84,400s-8.83,2.79-11.77.94L67.91,351.8,54.28,311S72,301.94,80.39,308.58Z" transform="translate(-6.86 -51.93)" opacity="0.37" fill="url(#linear-gradient-3)"/><polygon points="475.82 175.62 442.95 210.21 215.13 210.21 199.65 226.33 53.6 226.33 103.08 174.79 53.6 133.08 199.65 133.08 249.17 174.79 246.19 177.89 464.89 164.07 475.82 175.62" opacity="0.37" fill="url(#linear-gradient-4)"/><polygon points="249.74 162.17 200.24 213.73 54.16 213.73 103.67 162.17 54.16 120.47 200.24 120.47 249.74 162.17" fill="#d9dbe3"/><path d="M112.53,243.08a46.56,46.56,0,0,0-.13-7.65c-.41-4.89-1.05-9.77-1.94-14.6-.3-1.61-1.17-3.64-2.8-3.43a2.72,2.72,0,0,0-1.4.73c-2.49,2.09-3.75,5.33-4.3,8.53s-.46,6.49-.78,9.72A39.56,39.56,0,0,1,96.76,251c-2.16,4.08-4.77,14.54-5.27,14.72,0-.21,13.23.21,14.16,0C105.65,265.69,112,249.36,112.53,243.08Z" transform="translate(-6.86 -51.93)" opacity="0.37" fill="url(#linear-gradient-5)"/><polygon points="362.54 162.06 323.73 202.49 209.19 202.49 248.01 162.06 209.19 129.37 323.73 129.37 362.54 162.06" fill="#d9dbe3"/><polygon points="362.54 162.06 323.73 202.49 209.19 202.49 248.01 162.06 209.19 129.37 323.73 129.37 362.54 162.06" opacity="0.37" fill="url(#linear-gradient-6)"/><polygon points="477.07 162.06 438.26 202.49 323.72 202.49 362.54 162.06 323.72 129.37 438.26 129.37 477.07 162.06" fill="#d9dbe3"/><polygon points="477.07 162.06 438.26 202.49 323.72 202.49 362.54 162.06 323.72 129.37 438.26 129.37 477.07 162.06" opacity="0.37" fill="url(#linear-gradient-7)"/><polygon points="168.42 170.16 135.49 170.16 138.67 141.48 164.17 141.48 168.42 170.16" fill="#fff"/><path d="M151.32,194.53s.09-7.44,6.38-8.23,7.52,8.58,7.52,8.58" transform="translate(-6.86 -51.93)" fill="none" stroke="#fff" stroke-miterlimit="10" stroke-width="3.07"/><polygon points="302.15 159.01 302.15 178.39 268.64 178.39 268.64 159.01 280.95 159.01 280.95 163.37 288.42 163.37 288.42 159.01 302.15 159.01" fill="#fff"/><polygon points="303.9 149.21 303.9 157.69 288.42 157.69 288.42 149.2 280.95 149.2 280.95 157.69 266.92 157.69 266.92 149.21 303.9 149.21" fill="#fff"/><path d="M428,201.45H393.9a4.3,4.3,0,0,0-4.3,4.3v18.08a2.77,2.77,0,0,0,2.77,2.77h2.06a5.93,5.93,0,1,1,11.85,0h18.25a5.95,5.95,0,0,1,11.89,0h3a2.94,2.94,0,0,0,2.94-2.94v-10.4a3.2,3.2,0,0,0-1.1-2.42L432.18,203A6.41,6.41,0,0,0,428,201.45Zm-4.08,10.75v-7.77h7.5l9.52,7.77Z" transform="translate(-6.86 -51.93)" fill="#fff"/><path d="M430.61,221.75a5.12,5.12,0,1,0,5.1,5.1A5.13,5.13,0,0,0,430.61,221.75Zm.06,8.6a3.4,3.4,0,1,1,3.38-3.41A3.4,3.4,0,0,1,430.67,230.35Z" transform="translate(-6.86 -51.93)" fill="#fff"/><path d="M400.39,221.75a5.12,5.12,0,1,0,5.12,5.1A5.13,5.13,0,0,0,400.39,221.75Zm-.07,8.6a3.4,3.4,0,1,1,3.38-3.41A3.43,3.43,0,0,1,400.32,230.35Z" transform="translate(-6.86 -51.93)" fill="#fff"/><text transform="translate(129.36 187.59)" font-size="15.17" fill="#fff" font-family="Calibri-Bold, Calibri" font-weight="700">ORDER <tspan x="-15.1" y="18.2" letter-spacing="-0.01em">C</tspan><tspan x="-7.19" y="18.2">ONFIRMED</tspan></text><text transform="translate(241.74 193.07)" font-size="9.22" fill="#fff" font-family="Calibri-Bold, Calibri" font-weight="700">ITEM BEING <tspan x="47.84" y="0" letter-spacing="-0.07em">P</tspan><tspan x="52.13" y="0" letter-spacing="-0.01em">A</tspan><tspan x="57.61" y="0" letter-spacing="0em">CKED</tspan></text><text transform="translate(361.81 193.07)" font-size="9.22" fill="#fff" font-family="Calibri-Bold, Calibri" font-weight="700">ORDER IS ON I<tspan x="54.79" y="0" letter-spacing="0em">T</tspan><tspan x="59.31" y="0" letter-spacing="0em">S </tspan><tspan x="65.76" y="0" letter-spacing="-0.05em">W</tspan><tspan x="73.68" y="0" letter-spacing="-0.08em">A</tspan><tspan x="78.52" y="0">Y</tspan></text><rect x="281.75" y="148.62" width="5.83" height="13.95" fill="#fff"/><path d="M51.52,398.22,51,404.93a7.31,7.31,0,0,0,5.49,1.56c3.1-.5,5.51-4.32,5.51-4.32v-4.45Z" transform="translate(-6.86 -51.93)" fill="#f5c7c8"/><path d="M88.38,255.84s9-15.7,10.17-20.2,3.54-16.08,3.54-16.08,1.58-1.72,2.53,1.2,3.2,5.13,2.35,9.1.24,6.64-.47,10.12-9.76,8-11.56,17.15" transform="translate(-6.86 -51.93)" fill="#f5c7c8"/><polygon points="88.72 190.37 89.68 187.72 97.78 193.98 96.35 195.73 88.72 190.37" fill="#fff"/><path d="M68.77,248.34,84,264l11.88-21.86a65.31,65.31,0,0,1,7.38,5.53s-7.11,22.83-14.93,31.19c-3.8,4-21-7.31-21-7.31" transform="translate(-6.86 -51.93)" fill="#d9dbe3"/><path d="M68.77,248.34,84,264l11.88-21.86a65.31,65.31,0,0,1,7.38,5.53s-7.11,22.83-14.93,31.19c-3.8,4-21-7.31-21-7.31" transform="translate(-6.86 -51.93)" opacity="0.37" fill="url(#linear-gradient-8)"/><path d="M74.86,308l-3.34,34.84-8.7,56.6s-9.17,1.32-11.77-1l3.74-49.17-1.08-41.15S67.68,300.06,74.86,308Z" transform="translate(-6.86 -51.93)" fill="#606161"/><path d="M49.92,407.31a5.11,5.11,0,0,0,.45,2.48,4.75,4.75,0,0,0,2.78,2,21.78,21.78,0,0,0,6.39.89c3.37.11,6.73.14,10.1.08,1.51,0,3.26-.2,4.08-1.47a3.21,3.21,0,0,0-.49-3.63A9.56,9.56,0,0,0,70,405.5l-6.28-3.08a4.25,4.25,0,0,0-1.55-.52c-1.24-.07-2.23.94-3.24,1.66A8.37,8.37,0,0,1,53.23,405C50.55,404.74,50,404,49.92,407.31Z" transform="translate(-6.86 -51.93)" fill="#606161"/><path d="M74.86,308l-3.34,34.84-8.7,56.6s-9.17,1.32-11.77-1l3.74-49.17-1.08-41.15S67.68,300.06,74.86,308Z" transform="translate(-6.86 -51.93)" opacity="0.37" fill="url(#linear-gradient-9)"/><path d="M74.29,238.93l-.71.6a5.06,5.06,0,0,1-1.3.86c-.87.34-2.27.05-3,.7s-.67,2.95-.71,3.94a21.41,21.41,0,0,0,.42,5.36s-10-1.8-13-4.45c0,0,2.13-6.26,1-9.64s-3.88-8.8-1.45-13.41,7-9.31,13.76-9.18c3.13.06,6.27.93,7.52,4.09.78,2,.58,4.1.51,6.17-.09,2.93-.19,5.85-.28,8.78a9.31,9.31,0,0,1-.54,3.41A7.67,7.67,0,0,1,74.29,238.93Z" transform="translate(-6.86 -51.93)" fill="#f5c7c8"/><path d="M68.49,315.63a27.24,27.24,0,0,1-7.43.68s0,0,0,0a21.56,21.56,0,0,1-8.66-2s-1.75-24.63-2.92-43.28c-.71-10.87-1.2-19.72-1.08-20.48.34-2.12,5.13-7.74,8.27-7.74s13.45,4.7,13.45,4.7l10.54,62.23S81.64,312.68,68.49,315.63Z" transform="translate(-6.86 -51.93)" fill="#d9dbe3"/><path d="M65.54,311.06a4.51,4.51,0,0,1-2.45,4.54,6.82,6.82,0,0,1-2,.71s0,0,0,0a21.56,21.56,0,0,1-8.66-2s-1.75-24.63-2.92-43.28c.83-.86,1.69-1.65,2.21-2.12s4.61-2.91,4.64-3.5a208.4,208.4,0,0,0-.4,27.37c.12,2.46.43,5.22,2.36,6.79,1.76,1.44,4.67,1.63,5.53,3.75.56,1.29,0,2.79.34,4.14S65.3,309.8,65.54,311.06Z" transform="translate(-6.86 -51.93)" opacity="0.37" fill="url(#linear-gradient-10)"/><path d="M82.42,210.21a8,8,0,0,1-2.65,10c-2.88,2.1-5.69-2.35-10.84-.77s-4,7.58-4.28,12.09l-1.2-.28s.12-7.06-1.62-7.12c-3.64-.14-4.71,2.67-1.88,7.65l-.71,5.28-1.78,1.12S56,236.1,54.8,234.52c-3.64-4.6-5.25-13.94-2.18-19.54s9.08-7.49,11.84-6.43S78.29,201.83,82.42,210.21Z" transform="translate(-6.86 -51.93)" fill="#292f67"/><polygon points="63.69 196.13 64.51 198.63 45.95 192.01 48.67 187.43 63.69 196.13" fill="#fff"/><path d="M52.77,297.6s2,3.08,2.82,3.29,1.21-.92,3.29.35,3.76,1.14,3.59,1.92-1.19.23-1.94.58-.77,1.86,1.45,2.34,3.55-.62,3.55.47.07,5.07-.94,5.61-6.88,1-8.63-.58-3.69-5.71-5.18-6.38-2.34-4.42-2.34-4.42" transform="translate(-6.86 -51.93)" fill="#f5c7c8"/><path d="M53.07,244.62s-4.62.36-21.29,29.23c-4.56,7.91,17,30.68,17,30.68s6.65.32,7.36-4.34c0,0-11.6-20.55-11.25-23s12-13.16,11.59-17.84S57.72,244.82,53.07,244.62Z" transform="translate(-6.86 -51.93)" fill="#d9dbe3"/><path d="M82.42,210.21a8,8,0,0,1-2.65,10c-2.88,2.1-5.69-2.35-10.84-.77s-4,7.58-4.28,12.09l-1.2-.28s.12-7.06-1.62-7.12c-3.64-.14-4.71,2.67-1.88,7.65l-.71,5.28-1.78,1.12S56,236.1,54.8,234.52c-3.64-4.6-5.25-13.94-2.18-19.54s9.08-7.49,11.84-6.43S78.29,201.83,82.42,210.21Z" transform="translate(-6.86 -51.93)" fill="#606161"/><path d="M82.42,210.21a8,8,0,0,1-2.65,10c-2.88,2.1-5.69-2.35-10.84-.77s-4,7.58-4.28,12.09l-1.2-.28s.12-7.06-1.62-7.12c-3.64-.14-4.71,2.67-1.88,7.65l-.71,5.28-1.78,1.12S56,236.1,54.8,234.52c-3.64-4.6-5.25-13.94-2.18-19.54s9.08-7.49,11.84-6.43S78.29,201.83,82.42,210.21Z" transform="translate(-6.86 -51.93)" opacity="0.37" fill="url(#linear-gradient-11)"/><path d="M73.85,236.58a20.91,20.91,0,0,1-5.74-1.46c-2.5-1.14-2.7-.74-3,.58a3.16,3.16,0,0,0,2.43,3.69c2,.46,4.84.79,5.07.21A15.84,15.84,0,0,0,73.85,236.58Z" transform="translate(-6.86 -51.93)" fill="#f5c7c8"/><path d="M56,299.13s-.77,2.94-2.91,4.09a9.05,9.05,0,0,1-4.9.75l1.49,2.52s.86.68,4.4-1.1,3.45-4.74,3.45-4.74Z" transform="translate(-6.86 -51.93)" fill="#fff"/><path d="M49.94,407.32a5,5,0,0,0,.46,2.48,4.74,4.74,0,0,0,2.77,2,22.24,22.24,0,0,0,6.4.89c3.36.11,6.73.14,10.09.08,1.51,0,3.27-.2,4.08-1.47a3.21,3.21,0,0,0-.49-3.63A9.46,9.46,0,0,0,70,405.51l-6.28-3.08a4.12,4.12,0,0,0-1.55-.52c-1.24-.07-2.23.93-3.23,1.66A8.4,8.4,0,0,1,53.26,405C50.57,404.75,50,404,49.94,407.32Z" transform="translate(-6.86 -51.93)" opacity="0.37" fill="url(#linear-gradient-12)"/></svg>